M48
; DRILL file {KiCad 5.1.5+dfsg1-2build2} date Sun 23 Jan 2022 03:03:59 PM EST
; FORMAT={-:-/ absolute / metric / decimal}
; #@! TF.CreationDate,2022-01-23T15:03:59-05:00
; #@! TF.GenerationSoftware,Kicad,Pcbnew,5.1.5+dfsg1-2build2
; #@! TF.FileFunction,Plated,1,2,PTH
FMAT,2
METRIC
T1C0.300
T2C0.600
T3C0.762
T4C0.800
T5C0.900
T6C0.914
T7C1.000
T8C1.100
T9C1.200
T10C1.520
%
G90
G05
T1
X27.94Y-113.03
X28.489Y-105.644
X33.02Y-144.526
X33.02Y-154.305
X34.107Y-103.185
X34.448Y-117.044
X34.773Y-96.733
X34.802Y-75.768
X35.027Y-78.593
X35.56Y-144.081
X35.577Y-76.772
X35.623Y-140.208
X35.687Y-146.875
X36.386Y-41.656
X37.401Y-44.45
X37.866Y-104.237
X38.1Y-139.556
X38.1Y-143.908
X38.163Y-145.496
X38.291Y-88.773
X40.64Y-139.81
X40.64Y-143.654
X40.64Y-162.56
X40.703Y-145.242
X42.875Y-71.272
X43.117Y-143.499
X43.18Y-140.064
X43.18Y-144.988
X44.323Y-54.356
X44.323Y-82.677
X44.323Y-90.17
X44.323Y-97.79
X44.323Y-111.76
X44.323Y-127.0
X44.372Y-73.463
X45.402Y-146.177
X45.72Y-140.318
X45.733Y-159.829
X46.164Y-144.844
X46.609Y-62.357
X47.056Y-85.766
X47.625Y-90.297
X48.006Y-144.999
X48.209Y-159.969
X48.387Y-140.572
X48.959Y-146.188
X49.149Y-100.33
X49.276Y-129.54
X49.767Y-72.39
X49.767Y-78.867
X50.698Y-156.489
X50.736Y-144.508
X50.863Y-140.826
X51.371Y-145.669
X53.103Y-59.69
X53.213Y-87.63
X53.34Y-117.094
X53.34Y-144.018
X53.848Y-57.404
X53.848Y-85.217
X53.848Y-114.3
X54.377Y-122.158
X55.118Y-90.17
X55.423Y-106.274
X55.423Y-108.864
X55.499Y-79.23
X56.388Y-86.614
X56.694Y-91.186
X56.769Y-80.772
X59.182Y-107.95
X59.436Y-30.48
X59.487Y-118.059
X59.69Y-95.885
X59.736Y-138.235
X59.736Y-131.021
X60.325Y-21.844
X60.325Y-40.577
X60.604Y-64.77
X60.622Y-128.88
X60.96Y-21.354
X61.021Y-138.971
X61.375Y-137.744
X61.62Y-59.639
X61.62Y-136.957
X61.671Y-48.006
X61.687Y-139.263
X61.722Y-28.702
X62.027Y-141.935
X62.205Y-137.44
X62.236Y-29.47
X62.379Y-139.486
X62.619Y-52.019
X62.825Y-136.765
X62.865Y-23.876
X62.865Y-37.313
X62.873Y-54.153
X62.911Y-140.168
X63.246Y-57.81
X63.381Y-58.547
X63.381Y-135.845
X63.5Y-24.384
X63.524Y-136.967
X63.559Y-140.499
X63.635Y-61.508
X63.763Y-135.227
X63.889Y-62.23
X63.944Y-138.112
X64.135Y-27.813
X64.253Y-140.715
X64.435Y-44.145
X64.689Y-48.26
X64.77Y-28.448
X64.83Y-42.294
X64.936Y-140.966
X64.943Y-50.8
X65.197Y-53.34
X65.329Y-159.918
X65.451Y-46.98
X65.451Y-55.88
X65.705Y-49.595
X65.705Y-58.42
X65.959Y-52.14
X66.145Y-60.911
X66.213Y-67.31
X66.213Y-120.396
X66.446Y-121.818
X69.088Y-88.9
X69.215Y-104.671
X70.104Y-98.4
X70.155Y-94.031
X71.12Y-83.82
X71.12Y-123.698
X72.644Y-109.347
X73.101Y-141.935
X73.152Y-106.832
X73.406Y-91.796
X73.711Y-26.279
X74.79Y-29.794
X74.828Y-36.284
X76.225Y-26.279
X76.454Y-45.72
X76.581Y-59.69
X76.725Y-83.82
X76.944Y-48.26
X76.962Y-52.07
X77.216Y-81.28
X77.343Y-36.297
X77.572Y-46.025
X77.66Y-53.34
X77.851Y-55.88
X78.062Y-41.91
X78.105Y-40.894
X78.451Y-35.221
X78.613Y-120.142
X78.74Y-135.89
X80.01Y-105.918
X80.221Y-94.361
X80.264Y-74.676
X80.264Y-77.978
X80.546Y-33.022
X81.196Y-32.696
X81.28Y-26.279
X81.28Y-136.525
X81.45Y-31.961
X81.509Y-57.175
X81.953Y-52.121
X81.999Y-54.597
X82.126Y-49.543
X82.152Y-26.372
X82.431Y-47.015
X82.499Y-88.748
X82.55Y-109.855
X82.642Y-34.069
X82.672Y-44.475
X82.753Y-93.98
X82.874Y-26.279
X82.956Y-70.815
X83.134Y-32.423
X83.163Y-37.249
X83.163Y-41.961
X83.82Y-137.16
X84.074Y-148.082
X84.356Y-102.235
X84.846Y-85.7
X86.106Y-58.42
X86.233Y-60.96
X86.347Y-161.273
X86.36Y-62.992
X86.36Y-137.795
X86.36Y-148.844
X87.63Y-142.24
X87.884Y-104.775
X88.307Y-98.005
X88.341Y-75.082
X88.595Y-69.545
X88.646Y-76.962
X88.883Y-99.695
X88.887Y-161.527
X88.9Y-138.43
X89.002Y-25.286
X89.002Y-44.45
X89.027Y-96.901
X89.137Y-102.235
X89.535Y-109.855
X89.552Y-46.99
X89.916Y-91.846
X89.967Y-155.346
X90.043Y-40.64
X90.043Y-82.55
X90.17Y-112.395
X90.533Y-49.53
X90.538Y-39.992
X90.576Y-54.0
X91.237Y-27.703
X91.313Y-95.395
X91.44Y-101.092
X91.44Y-139.065
X91.44Y-155.905
X91.453Y-161.781
X91.745Y-69.545
X92.697Y-38.697
X92.761Y-154.483
X92.862Y-67.005
X93.98Y-139.7
X94.17Y-87.566
X94.234Y-82.614
X94.234Y-109.728
X94.742Y-106.299
X95.352Y-45.11
X95.402Y-66.345
X95.504Y-111.252
X96.012Y-86.741
X96.52Y-140.335
X96.52Y-160.291
X97.896Y-77.858
X98.298Y-149.923
X98.806Y-28.448
X98.849Y-100.965
X99.06Y-110.236
X99.162Y-145.542
X99.39Y-122.745
X100.254Y-26.005
X100.292Y-28.842
X100.838Y-162.109
X101.6Y-78.181
X101.617Y-80.061
X101.617Y-94.615
X101.663Y-76.2
X102.362Y-70.885
X102.659Y-83.82
X102.726Y-89.027
X102.726Y-92.456
X102.972Y-62.89
X103.111Y-48.184
X103.124Y-67.564
X103.188Y-37.452
X103.395Y-124.777
X103.48Y-143.548
X103.505Y-102.552
X103.645Y-41.897
X103.835Y-44.755
X104.699Y-142.088
X104.775Y-103.505
X105.766Y-55.982
X106.172Y-98.552
X106.807Y-112.311
X106.807Y-155.448
X107.086Y-78.689
X107.391Y-35.052
X107.429Y-23.762
X107.429Y-33.574
X107.505Y-105.981
X107.823Y-114.681
X107.95Y-74.422
X108.255Y-33.02
X108.636Y-43.299
X109.093Y-118.872
X109.169Y-46.102
X109.173Y-52.591
X109.22Y-88.773
X109.474Y-86.36
X109.728Y-113.538
X109.728Y-125.73
X109.838Y-83.693
X109.982Y-50.749
X110.185Y-53.572
X110.236Y-81.407
X110.363Y-120.523
X110.388Y-49.53
X110.49Y-126.763
X110.693Y-114.554
X110.744Y-64.77
X110.744Y-90.17
X111.069Y-50.865
X111.125Y-57.15
X111.316Y-105.981
X111.513Y-23.905
X111.523Y-50.297
X111.523Y-59.69
X111.523Y-65.913
X111.722Y-30.883
X111.963Y-46.449
X112.776Y-90.17
X112.827Y-104.63
X112.903Y-49.149
X112.903Y-87.503
X113.182Y-92.913
X113.284Y-102.108
X113.347Y-54.483
X113.347Y-59.627
X113.792Y-47.904
X113.944Y-24.74
X114.021Y-102.387
X114.216Y-82.499
X114.554Y-117.094
X114.605Y-118.415
X115.197Y-78.17
X115.468Y-114.198
X116.23Y-34.9
X116.23Y-33.114
X117.5Y-57.963
X117.602Y-62.357
X117.653Y-52.781
X117.653Y-114.706
X117.653Y-119.634
X118.203Y-45.704
X118.476Y-56.71
X118.491Y-63.711
X118.516Y-67.361
X118.554Y-69.723
X118.554Y-73.343
X118.872Y-122.106
X119.634Y-40.005
X119.634Y-44.552
X120.015Y-27.813
X120.294Y-44.856
X120.523Y-81.343
X120.823Y-119.634
X121.077Y-117.157
X121.331Y-114.79
X121.585Y-112.014
X121.73Y-102.197
X121.839Y-109.474
X122.314Y-101.727
X122.382Y-37.49
X122.428Y-54.356
X122.428Y-59.69
X122.428Y-63.754
X122.428Y-106.807
X122.428Y-110.744
X122.453Y-31.872
X122.509Y-46.312
X122.631Y-65.422
X122.834Y-68.123
X123.139Y-70.561
X123.292Y-57.472
X123.38Y-34.861
X124.054Y-48.768
X124.079Y-39.941
X124.079Y-61.214
X124.079Y-67.183
X124.539Y-46.109
X125.222Y-39.98
X125.349Y-66.531
X125.959Y-111.481
X125.984Y-126.238
X126.009Y-134.315
X126.035Y-30.378
X126.136Y-105.359
X126.289Y-55.474
X126.416Y-25.781
X127.0Y-69.85
X127.0Y-77.724
X129.337Y-46.398
X129.54Y-79.121
X129.642Y-56.744
X129.964Y-33.103
X130.421Y-29.87
X130.475Y-43.941
X130.567Y-39.0
X130.853Y-32.372
X130.861Y-52.476
X131.572Y-65.532
X131.572Y-69.85
X131.775Y-46.888
X133.35Y-80.01
X133.35Y-107.95
X133.413Y-40.03
X133.49Y-25.121
X133.904Y-37.592
X134.747Y-54.61
X135.572Y-42.608
X135.89Y-82.377
X135.89Y-139.065
X136.462Y-24.892
X136.525Y-132.055
X136.525Y-139.7
X136.987Y-111.125
X137.16Y-129.54
X137.16Y-140.335
X137.211Y-47.6
X137.262Y-40.081
X137.668Y-75.082
X137.681Y-116.561
X137.935Y-113.69
X138.049Y-159.08
X138.176Y-139.878
X138.43Y-43.299
X138.43Y-82.55
X138.455Y-134.709
X138.677Y-31.707
X139.065Y-130.03
X139.065Y-135.89
X139.497Y-107.696
X139.7Y-131.589
X139.7Y-136.525
X139.802Y-48.768
X140.335Y-137.16
X140.97Y-60.96
X140.97Y-82.885
X140.97Y-137.795
X141.072Y-35.204
X141.567Y-22.763
X142.088Y-46.102
X142.24Y-138.43
X143.358Y-48.43
X143.51Y-82.55
X143.51Y-132.588
X143.764Y-117.094
X143.764Y-118.364
X143.944Y-29.068
X144.082Y-22.288
X144.281Y-119.091
X144.488Y-108.191
X144.564Y-37.884
X144.666Y-26.487
X144.755Y-123.38
X145.263Y-111.811
X145.974Y-123.457
X146.012Y-113.69
X146.05Y-82.55
X146.101Y-45.121
X146.583Y-114.313
X146.914Y-24.79
X146.939Y-22.288
X147.32Y-124.714
X147.627Y-45.312
X148.133Y-32.461
X148.59Y-53.137
X148.59Y-82.55
X148.679Y-31.618
X148.692Y-110.998
X148.692Y-115.011
X148.793Y-112.725
X148.878Y-45.295
X149.301Y-44.704
X149.733Y-22.288
X149.86Y-107.239
X150.0Y-119.037
X150.005Y-127.762
X150.063Y-50.529
X150.177Y-123.444
X150.711Y-118.364
X151.13Y-82.55
X151.625Y-22.593
X152.133Y-41.74
X152.451Y-25.997
X153.01Y-57.048
X153.695Y-84.62
X154.559Y-41.643
X154.907Y-30.924
X155.042Y-42.57
X155.067Y-40.945
X155.397Y-27.343
X155.702Y-44.831
X157.34Y-84.061
X157.861Y-25.527
X157.982Y-83.656
X158.369Y-148.59
X158.496Y-86.449
X159.921Y-29.169
X160.071Y-39.954
X160.125Y-85.666
X160.274Y-44.831
X162.522Y-39.002
X162.662Y-104.14
X163.335Y-122.288
X164.821Y-104.927
X165.379Y-104.115
X165.862Y-120.142
X168.402Y-128.524
X170.815Y-106.68
X171.45Y-107.95
X171.958Y-63.513
T2
X164.592Y-67.818
X166.592Y-67.818
X169.704Y-67.818
X171.704Y-67.818
X27.21Y-143.383
X29.21Y-143.383
X56.832Y-31.242
X56.832Y-33.242
T3
X109.22Y-148.63
X109.22Y-151.13
X109.22Y-153.63
X139.7Y-160.06
X139.7Y-162.56
X139.7Y-165.06
X114.3Y-160.06
X114.3Y-162.56
X114.3Y-165.06
X104.14Y-148.63
X104.14Y-151.13
X104.14Y-153.63
X134.62Y-160.06
X134.62Y-162.56
X134.62Y-165.06
X129.54Y-160.06
X129.54Y-162.56
X129.54Y-165.06
X168.402Y-36.212
X168.402Y-38.712
X168.402Y-41.212
X119.38Y-160.06
X119.38Y-162.56
X119.38Y-165.06
X124.46Y-160.06
X124.46Y-162.56
X124.46Y-165.06
X109.22Y-160.06
X109.22Y-162.56
X109.22Y-165.06
X104.14Y-160.1
X104.14Y-162.6
X104.14Y-165.1
T4
X102.362Y-117.475
X102.362Y-122.475
X79.963Y-65.151
X84.963Y-65.151
X127.254Y-129.032
X132.254Y-129.032
X69.977Y-69.342
X74.977Y-69.342
X126.365Y-97.79
X131.365Y-97.79
X90.17Y-22.86
X90.17Y-30.48
X92.71Y-22.86
X92.71Y-30.48
X95.25Y-22.86
X95.25Y-30.48
X97.79Y-22.86
X97.79Y-30.48
X100.33Y-22.86
X100.33Y-30.48
X102.87Y-22.86
X102.87Y-30.48
X105.41Y-22.86
X105.41Y-30.48
X165.1Y-128.575
X172.72Y-128.575
X142.875Y-24.765
X142.875Y-27.305
X142.875Y-29.845
X142.875Y-32.385
X142.875Y-34.925
X142.875Y-37.465
X142.875Y-40.005
X142.875Y-42.545
X150.495Y-24.765
X150.495Y-27.305
X150.495Y-29.845
X150.495Y-32.385
X150.495Y-34.925
X150.495Y-37.465
X150.495Y-40.005
X150.495Y-42.545
X161.29Y-53.848
X161.29Y-61.468
X154.686Y-156.21
X162.306Y-156.21
X78.74Y-71.12
X78.74Y-73.66
X78.74Y-76.2
X78.74Y-78.74
X78.74Y-81.28
X78.74Y-83.82
X78.74Y-86.36
X78.74Y-88.9
X86.36Y-71.12
X86.36Y-73.66
X86.36Y-76.2
X86.36Y-78.74
X86.36Y-81.28
X86.36Y-83.82
X86.36Y-86.36
X86.36Y-88.9
X113.03Y-144.78
X120.65Y-144.78
X78.74Y-157.48
X78.74Y-165.1
X81.28Y-157.48
X81.28Y-165.1
X83.82Y-157.48
X83.82Y-165.1
X86.36Y-157.48
X86.36Y-165.1
X88.9Y-157.48
X88.9Y-165.1
X91.44Y-157.48
X91.44Y-165.1
X93.98Y-157.48
X93.98Y-165.1
X96.52Y-157.48
X96.52Y-165.1
X50.8Y-73.66
X55.8Y-73.66
X50.8Y-101.6
X55.8Y-101.6
X169.164Y-53.848
X169.164Y-61.468
X113.11Y-21.59
X118.11Y-21.59
X107.95Y-70.358
X112.95Y-70.358
X105.41Y-118.364
X105.41Y-120.904
X105.41Y-123.444
X105.41Y-125.984
X105.41Y-128.524
X105.41Y-131.064
X105.41Y-133.604
X113.03Y-118.364
X113.03Y-120.904
X113.03Y-123.444
X113.03Y-125.984
X113.03Y-128.524
X113.03Y-131.064
X113.03Y-133.604
X148.59Y-124.46
X148.59Y-127.0
X148.59Y-129.54
X148.59Y-132.08
X148.59Y-134.62
X148.59Y-137.16
X148.59Y-139.7
X148.59Y-142.24
X148.59Y-144.78
X148.59Y-147.32
X156.21Y-124.46
X156.21Y-127.0
X156.21Y-129.54
X156.21Y-132.08
X156.21Y-134.62
X156.21Y-137.16
X156.21Y-139.7
X156.21Y-142.24
X156.21Y-144.78
X156.21Y-147.32
X67.31Y-98.298
X72.31Y-98.298
X170.18Y-97.87
X170.18Y-102.87
X50.8Y-130.81
X55.8Y-130.81
X78.74Y-94.488
X78.74Y-97.028
X78.74Y-99.568
X78.74Y-102.108
X78.74Y-104.648
X78.74Y-107.188
X78.74Y-109.728
X78.74Y-112.268
X78.74Y-114.808
X78.74Y-117.348
X86.36Y-94.488
X86.36Y-97.028
X86.36Y-99.568
X86.36Y-102.108
X86.36Y-104.648
X86.36Y-107.188
X86.36Y-109.728
X86.36Y-112.268
X86.36Y-114.808
X86.36Y-117.348
X148.59Y-95.25
X148.59Y-102.87
X151.13Y-95.25
X151.13Y-102.87
X153.67Y-95.25
X153.67Y-102.87
X156.21Y-95.25
X156.21Y-102.87
X158.75Y-95.25
X158.75Y-102.87
X161.29Y-95.25
X161.29Y-102.87
X163.83Y-95.25
X163.83Y-102.87
X166.37Y-95.25
X166.37Y-102.87
X78.74Y-143.51
X78.74Y-151.13
X81.28Y-143.51
X81.28Y-151.13
X83.82Y-143.51
X83.82Y-151.13
X86.36Y-143.51
X86.36Y-151.13
X88.9Y-143.51
X88.9Y-151.13
X91.44Y-143.51
X91.44Y-151.13
X93.98Y-143.51
X93.98Y-151.13
X96.52Y-143.51
X96.52Y-151.13
X65.468Y-145.097
X73.088Y-145.097
X135.89Y-46.99
X135.89Y-54.61
X138.43Y-46.99
X138.43Y-54.61
X140.97Y-46.99
X140.97Y-54.61
X143.51Y-46.99
X143.51Y-54.61
X146.05Y-46.99
X146.05Y-54.61
X148.59Y-46.99
X148.59Y-54.61
X151.13Y-46.99
X151.13Y-54.61
X50.8Y-52.07
X50.8Y-54.61
X50.8Y-57.15
X50.8Y-59.69
X50.8Y-62.23
X50.8Y-64.77
X50.8Y-67.31
X50.8Y-69.85
X58.42Y-52.07
X58.42Y-54.61
X58.42Y-57.15
X58.42Y-59.69
X58.42Y-62.23
X58.42Y-64.77
X58.42Y-67.31
X58.42Y-69.85
X121.285Y-24.765
X121.285Y-27.305
X121.285Y-29.845
X121.285Y-32.385
X121.285Y-34.925
X121.285Y-37.465
X121.285Y-40.005
X121.285Y-42.545
X128.905Y-24.765
X128.905Y-27.305
X128.905Y-29.845
X128.905Y-32.385
X128.905Y-34.925
X128.905Y-37.465
X128.905Y-40.005
X128.905Y-42.545
X169.545Y-111.76
X169.545Y-116.76
X106.76Y-73.152
X111.76Y-73.152
X50.8Y-109.22
X50.8Y-111.76
X50.8Y-114.3
X50.8Y-116.84
X50.8Y-119.38
X50.8Y-121.92
X50.8Y-124.46
X50.8Y-127.0
X58.42Y-109.22
X58.42Y-111.76
X58.42Y-114.3
X58.42Y-116.84
X58.42Y-119.38
X58.42Y-121.92
X58.42Y-124.46
X58.42Y-127.0
X33.02Y-149.86
X33.02Y-165.1
X35.56Y-149.86
X35.56Y-165.1
X38.1Y-149.86
X38.1Y-165.1
X40.64Y-149.86
X40.64Y-165.1
X43.18Y-149.86
X43.18Y-165.1
X45.72Y-149.86
X45.72Y-165.1
X48.26Y-149.86
X48.26Y-165.1
X50.8Y-149.86
X50.8Y-165.1
X53.34Y-149.86
X53.34Y-165.1
X55.88Y-149.86
X55.88Y-165.1
X58.42Y-149.86
X58.42Y-165.1
X60.96Y-149.86
X60.96Y-165.1
X63.5Y-149.86
X63.5Y-165.1
X66.04Y-149.86
X66.04Y-165.1
X68.58Y-149.86
X68.58Y-165.1
X122.0Y-47.752
X127.0Y-47.752
X132.08Y-77.47
X134.62Y-77.47
X137.16Y-77.47
X139.7Y-77.47
X142.24Y-77.47
X144.78Y-77.47
X147.32Y-77.47
X149.86Y-77.47
X152.4Y-77.47
X165.1Y-156.21
X172.72Y-156.21
X81.36Y-67.691
X86.36Y-67.691
X148.59Y-109.22
X148.59Y-116.84
X151.13Y-109.22
X151.13Y-116.84
X153.67Y-109.22
X153.67Y-116.84
X156.21Y-109.22
X156.21Y-116.84
X158.75Y-109.22
X158.75Y-116.84
X161.29Y-109.22
X161.29Y-116.84
X163.83Y-109.22
X163.83Y-116.84
X166.37Y-109.22
X166.37Y-116.84
X58.293Y-22.86
X58.293Y-27.86
X107.95Y-49.53
X107.95Y-52.07
X107.95Y-54.61
X107.95Y-57.15
X107.95Y-59.69
X107.95Y-62.23
X107.95Y-64.77
X107.95Y-67.31
X115.57Y-49.53
X115.57Y-52.07
X115.57Y-54.61
X115.57Y-57.15
X115.57Y-59.69
X115.57Y-62.23
X115.57Y-64.77
X115.57Y-67.31
X116.205Y-77.47
X116.205Y-80.01
X116.205Y-82.55
X116.205Y-85.09
X116.205Y-87.63
X116.205Y-90.17
X116.205Y-92.71
X116.205Y-95.25
X116.205Y-97.79
X116.205Y-100.33
X123.825Y-77.47
X123.825Y-80.01
X123.825Y-82.55
X123.825Y-85.09
X123.825Y-87.63
X123.825Y-90.17
X123.825Y-92.71
X123.825Y-95.25
X123.825Y-97.79
X123.825Y-100.33
X91.52Y-167.64
X96.52Y-167.64
X159.385Y-125.937
X159.385Y-130.937
X120.65Y-52.07
X120.65Y-54.61
X120.65Y-57.15
X120.65Y-59.69
X120.65Y-62.23
X120.65Y-64.77
X120.65Y-67.31
X128.27Y-52.07
X128.27Y-54.61
X128.27Y-57.15
X128.27Y-59.69
X128.27Y-62.23
X128.27Y-64.77
X128.27Y-67.31
X165.354Y-53.848
X165.354Y-61.468
X110.236Y-24.765
X110.236Y-27.305
X110.236Y-29.845
X110.236Y-32.385
X110.236Y-34.925
X110.236Y-37.465
X110.236Y-40.005
X110.236Y-42.545
X117.856Y-24.765
X117.856Y-27.305
X117.856Y-29.845
X117.856Y-32.385
X117.856Y-34.925
X117.856Y-37.465
X117.856Y-40.005
X117.856Y-42.545
X67.31Y-43.18
X67.31Y-45.72
X67.31Y-48.26
X67.31Y-50.8
X67.31Y-53.34
X67.31Y-55.88
X67.31Y-58.42
X67.31Y-60.96
X67.31Y-63.5
X67.31Y-66.04
X74.93Y-43.18
X74.93Y-45.72
X74.93Y-48.26
X74.93Y-50.8
X74.93Y-53.34
X74.93Y-55.88
X74.93Y-58.42
X74.93Y-60.96
X74.93Y-63.5
X74.93Y-66.04
X134.62Y-100.33
X134.62Y-102.87
X134.62Y-105.41
X134.62Y-107.95
X134.62Y-110.49
X134.62Y-113.03
X134.62Y-115.57
X134.62Y-118.11
X134.62Y-120.65
X134.62Y-123.19
X134.62Y-125.73
X134.62Y-128.27
X134.62Y-130.81
X134.62Y-133.35
X142.24Y-100.33
X142.24Y-102.87
X142.24Y-105.41
X142.24Y-107.95
X142.24Y-110.49
X142.24Y-113.03
X142.24Y-115.57
X142.24Y-118.11
X142.24Y-120.65
X142.24Y-123.19
X142.24Y-125.73
X142.24Y-128.27
X142.24Y-130.81
X142.24Y-133.35
X132.08Y-24.765
X132.08Y-27.305
X132.08Y-29.845
X132.08Y-32.385
X132.08Y-34.925
X132.08Y-37.465
X132.08Y-40.005
X132.08Y-42.545
X139.7Y-24.765
X139.7Y-27.305
X139.7Y-29.845
X139.7Y-32.385
X139.7Y-34.925
X139.7Y-37.465
X139.7Y-40.005
X139.7Y-42.545
X67.31Y-101.6
X67.31Y-104.14
X67.31Y-106.68
X67.31Y-109.22
X67.31Y-111.76
X67.31Y-114.3
X67.31Y-116.84
X74.93Y-101.6
X74.93Y-104.14
X74.93Y-106.68
X74.93Y-109.22
X74.93Y-111.76
X74.93Y-114.3
X74.93Y-116.84
X68.58Y-22.86
X68.58Y-30.48
X71.12Y-22.86
X71.12Y-30.48
X73.66Y-22.86
X73.66Y-30.48
X76.2Y-22.86
X76.2Y-30.48
X78.74Y-22.86
X78.74Y-30.48
X81.28Y-22.86
X81.28Y-30.48
X83.82Y-22.86
X83.82Y-30.48
X29.21Y-82.55
X29.21Y-85.09
X29.21Y-87.63
X29.21Y-90.17
X29.21Y-92.71
X29.21Y-95.25
X29.21Y-97.79
X29.21Y-100.33
X29.21Y-102.87
X103.505Y-100.33
X103.505Y-105.33
X104.902Y-114.554
X112.522Y-114.554
X116.205Y-105.41
X116.205Y-107.95
X116.205Y-110.49
X116.205Y-113.03
X116.205Y-115.57
X116.205Y-118.11
X116.205Y-120.65
X116.205Y-123.19
X116.205Y-125.73
X116.205Y-128.27
X123.825Y-105.41
X123.825Y-107.95
X123.825Y-110.49
X123.825Y-113.03
X123.825Y-115.57
X123.825Y-118.11
X123.825Y-120.65
X123.825Y-123.19
X123.825Y-125.73
X123.825Y-128.27
X76.2Y-121.92
X78.74Y-121.92
X81.28Y-121.92
X83.82Y-121.92
X86.36Y-121.92
X88.9Y-121.92
X91.44Y-121.92
X93.98Y-121.92
X96.52Y-121.92
X132.08Y-58.42
X134.62Y-58.42
X137.16Y-58.42
X139.7Y-58.42
X142.24Y-58.42
X144.78Y-58.42
X147.32Y-58.42
X149.86Y-58.42
X152.4Y-58.42
X92.71Y-98.552
X92.71Y-101.092
X92.71Y-103.632
X92.71Y-106.172
X92.71Y-108.712
X92.71Y-111.252
X92.71Y-113.792
X100.33Y-98.552
X100.33Y-101.092
X100.33Y-103.632
X100.33Y-106.172
X100.33Y-108.712
X100.33Y-111.252
X100.33Y-113.792
X100.33Y-151.13
X100.33Y-156.13
X135.97Y-96.393
X140.97Y-96.393
X93.933Y-71.501
X98.933Y-71.501
X72.644Y-121.031
X72.644Y-126.031
X124.46Y-144.78
X132.08Y-144.78
X93.98Y-45.72
X93.98Y-48.26
X93.98Y-50.8
X93.98Y-53.34
X93.98Y-55.88
X93.98Y-58.42
X93.98Y-60.96
X93.98Y-63.5
X93.98Y-66.04
X93.98Y-68.58
X101.6Y-45.72
X101.6Y-48.26
X101.6Y-50.8
X101.6Y-53.34
X101.6Y-55.88
X101.6Y-58.42
X101.6Y-60.96
X101.6Y-63.5
X101.6Y-66.04
X101.6Y-68.58
X134.62Y-144.78
X142.24Y-144.78
X67.31Y-78.74
X67.31Y-81.28
X67.31Y-83.82
X67.31Y-86.36
X67.31Y-88.9
X67.31Y-91.44
X67.31Y-93.98
X74.93Y-78.74
X74.93Y-81.28
X74.93Y-83.82
X74.93Y-86.36
X74.93Y-88.9
X74.93Y-91.44
X74.93Y-93.98
X29.21Y-54.61
X29.21Y-57.15
X29.21Y-59.69
X29.21Y-62.23
X29.21Y-64.77
X29.21Y-67.31
X29.21Y-69.85
X29.21Y-72.39
X29.21Y-74.93
X172.72Y-53.848
X172.72Y-61.468
X94.06Y-74.422
X99.06Y-74.422
X50.8Y-80.01
X50.8Y-82.55
X50.8Y-85.09
X50.8Y-87.63
X50.8Y-90.17
X50.8Y-92.71
X50.8Y-95.25
X50.8Y-97.79
X58.42Y-80.01
X58.42Y-82.55
X58.42Y-85.09
X58.42Y-87.63
X58.42Y-90.17
X58.42Y-92.71
X58.42Y-95.25
X58.42Y-97.79
X91.44Y-77.47
X91.44Y-80.01
X91.44Y-82.55
X91.44Y-85.09
X91.44Y-87.63
X91.44Y-90.17
X91.44Y-92.71
X99.06Y-77.47
X99.06Y-80.01
X99.06Y-82.55
X99.06Y-85.09
X99.06Y-87.63
X99.06Y-90.17
X99.06Y-92.71
X105.029Y-97.79
X112.649Y-97.79
X144.526Y-156.21
X152.146Y-156.21
X80.01Y-39.37
X80.01Y-41.91
X80.01Y-44.45
X80.01Y-46.99
X80.01Y-49.53
X80.01Y-52.07
X80.01Y-54.61
X80.01Y-57.15
X80.01Y-59.69
X80.01Y-62.23
X87.63Y-39.37
X87.63Y-41.91
X87.63Y-44.45
X87.63Y-46.99
X87.63Y-49.53
X87.63Y-52.07
X87.63Y-54.61
X87.63Y-57.15
X87.63Y-59.69
X87.63Y-62.23
X131.699Y-50.419
X131.699Y-55.419
X153.67Y-24.765
X153.67Y-27.305
X153.67Y-29.845
X153.67Y-32.385
X153.67Y-34.925
X153.67Y-37.465
X153.67Y-40.005
X161.29Y-24.765
X161.29Y-27.305
X161.29Y-29.845
X161.29Y-32.385
X161.29Y-34.925
X161.29Y-37.465
X161.29Y-40.005
X29.21Y-111.76
X29.21Y-114.3
X29.21Y-116.84
X29.21Y-119.38
X29.21Y-121.92
X29.21Y-124.46
X29.21Y-127.0
X29.21Y-129.54
X29.21Y-132.08
X104.14Y-76.2
X104.14Y-78.74
X104.14Y-81.28
X104.14Y-83.82
X104.14Y-86.36
X104.14Y-88.9
X104.14Y-91.44
X104.14Y-93.98
X111.76Y-76.2
X111.76Y-78.74
X111.76Y-81.28
X111.76Y-83.82
X111.76Y-86.36
X111.76Y-88.9
X111.76Y-91.44
X111.76Y-93.98
X26.67Y-22.796
X29.21Y-22.796
X31.75Y-22.796
X34.29Y-22.796
X36.83Y-22.796
X39.37Y-22.796
X41.91Y-22.796
X44.45Y-22.796
X46.99Y-22.796
X86.995Y-22.432
X86.995Y-27.432
X69.93Y-75.311
X74.93Y-75.311
X33.02Y-134.747
X33.02Y-142.367
X35.56Y-134.747
X35.56Y-142.367
X38.1Y-134.747
X38.1Y-142.367
X40.64Y-134.747
X40.64Y-142.367
X43.18Y-134.747
X43.18Y-142.367
X45.72Y-134.747
X45.72Y-142.367
X48.26Y-134.747
X48.26Y-142.367
X50.8Y-134.747
X50.8Y-142.367
X53.34Y-134.747
X53.34Y-142.367
X55.88Y-134.747
X55.88Y-142.367
T5
X157.734Y-47.498
X157.734Y-50.038
X162.56Y-47.498
X162.56Y-50.038
X107.442Y-109.601
X109.982Y-109.601
X165.1Y-134.112
X167.64Y-134.112
X172.212Y-47.498
X172.212Y-50.038
X167.386Y-47.498
X167.386Y-50.038
X107.442Y-102.743
X109.982Y-102.743
X165.1Y-139.7
X167.64Y-139.7
X165.1Y-145.415
X167.64Y-145.415
X165.1Y-123.19
X167.64Y-123.19
T6
X29.21Y-26.416
X29.21Y-34.036
X31.75Y-26.416
X31.75Y-34.036
X34.29Y-26.416
X34.29Y-34.036
X36.83Y-26.416
X36.83Y-34.036
X39.37Y-26.416
X39.37Y-34.036
X41.91Y-26.416
X41.91Y-34.036
X44.45Y-26.416
X44.45Y-34.036
X46.99Y-26.416
X46.99Y-34.036
X49.53Y-26.416
X49.53Y-34.036
X52.07Y-26.416
X52.07Y-34.036
X78.74Y-125.73
X78.74Y-133.35
X81.28Y-125.73
X81.28Y-133.35
X83.82Y-125.73
X83.82Y-133.35
X86.36Y-125.73
X86.36Y-133.35
X88.9Y-125.73
X88.9Y-133.35
X91.44Y-125.73
X91.44Y-133.35
X93.98Y-125.73
X93.98Y-133.35
X96.52Y-125.73
X96.52Y-133.35
X99.06Y-125.73
X99.06Y-133.35
X101.6Y-125.73
X101.6Y-133.35
X33.02Y-49.53
X33.02Y-52.07
X33.02Y-54.61
X33.02Y-57.15
X33.02Y-59.69
X33.02Y-62.23
X33.02Y-64.77
X33.02Y-67.31
X33.02Y-69.85
X33.02Y-72.39
X40.64Y-49.53
X40.64Y-52.07
X40.64Y-54.61
X40.64Y-57.15
X40.64Y-59.69
X40.64Y-62.23
X40.64Y-64.77
X40.64Y-67.31
X40.64Y-69.85
X40.64Y-72.39
X33.02Y-106.68
X33.02Y-109.22
X33.02Y-111.76
X33.02Y-114.3
X33.02Y-116.84
X33.02Y-119.38
X33.02Y-121.92
X33.02Y-124.46
X33.02Y-127.0
X33.02Y-129.54
X40.64Y-106.68
X40.64Y-109.22
X40.64Y-111.76
X40.64Y-114.3
X40.64Y-116.84
X40.64Y-119.38
X40.64Y-121.92
X40.64Y-124.46
X40.64Y-127.0
X40.64Y-129.54
X134.62Y-81.28
X134.62Y-88.9
X137.16Y-81.28
X137.16Y-88.9
X139.7Y-81.28
X139.7Y-88.9
X142.24Y-81.28
X142.24Y-88.9
X144.78Y-81.28
X144.78Y-88.9
X147.32Y-81.28
X147.32Y-88.9
X149.86Y-81.28
X149.86Y-88.9
X152.4Y-81.28
X152.4Y-88.9
X154.94Y-81.28
X154.94Y-88.9
X157.48Y-81.28
X157.48Y-88.9
X134.62Y-62.23
X134.62Y-69.85
X137.16Y-62.23
X137.16Y-69.85
X139.7Y-62.23
X139.7Y-69.85
X142.24Y-62.23
X142.24Y-69.85
X144.78Y-62.23
X144.78Y-69.85
X147.32Y-62.23
X147.32Y-69.85
X149.86Y-62.23
X149.86Y-69.85
X152.4Y-62.23
X152.4Y-69.85
X154.94Y-62.23
X154.94Y-69.85
X157.48Y-62.23
X157.48Y-69.85
X33.02Y-77.47
X33.02Y-80.01
X33.02Y-82.55
X33.02Y-85.09
X33.02Y-87.63
X33.02Y-90.17
X33.02Y-92.71
X33.02Y-95.25
X33.02Y-97.79
X33.02Y-100.33
X40.64Y-77.47
X40.64Y-80.01
X40.64Y-82.55
X40.64Y-85.09
X40.64Y-87.63
X40.64Y-90.17
X40.64Y-92.71
X40.64Y-95.25
X40.64Y-97.79
X40.64Y-100.33
T7
X56.896Y-37.973
X56.896Y-40.513
X31.305Y-41.656
X31.305Y-44.196
X44.704Y-38.354
X44.704Y-40.894
X44.704Y-43.434
X44.704Y-45.974
X44.704Y-48.514
X44.704Y-51.054
X47.244Y-38.354
X47.244Y-40.894
X47.244Y-43.434
X47.244Y-45.974
X47.244Y-48.514
X47.244Y-51.054
T8
X144.63Y-160.02
X144.63Y-164.52
X151.13Y-160.02
X151.13Y-164.52
X134.62Y-148.59
X134.62Y-153.09
X141.12Y-148.59
X141.12Y-153.09
X114.3Y-148.59
X114.3Y-153.09
X120.8Y-148.59
X120.8Y-153.09
X165.1Y-160.02
X165.1Y-164.52
X171.6Y-160.02
X171.6Y-164.52
X124.46Y-148.59
X124.46Y-153.09
X130.96Y-148.59
X130.96Y-153.09
X154.94Y-160.02
X154.94Y-164.52
X161.44Y-160.02
X161.44Y-164.52
T9
X164.592Y-73.152
X167.132Y-73.152
X169.672Y-73.152
T10
X170.688Y-23.876
X170.688Y-28.956
T0
M30
